<mxfile host="app.diagrams.net" modified="2023-09-27T09:06:00.386Z" agent="Mozilla/5.0 (Windows NT 10.0; Win64; x64) AppleWebKit/537.36 (KHTML, like Gecko) Chrome/117.0.0.0 Safari/537.36" etag="YMKMd7oIBynYPk2rSktd" version="21.8.2" type="github">
  <diagram name="Page-1" id="9361dd3d-8414-5efd-6122-117bd74ce7a7">
    <mxGraphModel dx="1696" dy="1113" grid="1" gridSize="10" guides="1" tooltips="1" connect="1" arrows="1" fold="1" page="0" pageScale="1.5" pageWidth="826" pageHeight="1169" background="none" math="0" shadow="0">
      <root>
        <mxCell id="0" />
        <mxCell id="1" parent="0" />
        <mxCell id="69" value="" style="fillColor=#DEE8FF;strokeColor=none" parent="1" vertex="1">
          <mxGeometry x="-30" y="-53.88" width="1570" height="1033.88" as="geometry" />
        </mxCell>
        <mxCell id="2" value="" style="fillColor=#CC4125;strokeColor=#660000" parent="1" vertex="1">
          <mxGeometry x="200" y="150" width="10" height="130" as="geometry" />
        </mxCell>
        <mxCell id="3" value="" style="edgeStyle=none;verticalLabelPosition=top;verticalAlign=bottom;labelPosition=left;align=right" parent="1" edge="1">
          <mxGeometry width="100" height="100" as="geometry">
            <mxPoint x="110" y="149.5" as="sourcePoint" />
            <mxPoint x="200" y="149.5" as="targetPoint" />
            <Array as="points">
              <mxPoint x="180" y="150" />
            </Array>
            <mxPoint as="offset" />
          </mxGeometry>
        </mxCell>
        <mxCell id="40U8Hyy1MQshFt_wqeuv-89" value="tegrarecovery x1 on" style="edgeLabel;html=1;align=center;verticalAlign=middle;resizable=0;points=[];" vertex="1" connectable="0" parent="3">
          <mxGeometry relative="1" as="geometry">
            <mxPoint x="-4" y="-16" as="offset" />
          </mxGeometry>
        </mxCell>
        <mxCell id="4" value="Aurix" style="shadow=1;fillColor=#A2C4C9;strokeColor=none" parent="1" vertex="1">
          <mxGeometry x="152.5" y="60" width="105" height="50" as="geometry" />
        </mxCell>
        <mxCell id="6" value="" style="fillColor=#CC4125;strokeColor=#660000" parent="1" vertex="1">
          <mxGeometry x="342.5" y="180" width="10" height="80" as="geometry" />
        </mxCell>
        <mxCell id="7" value="Orin" style="shadow=1;fillColor=#A2C4C9;strokeColor=none" parent="1" vertex="1">
          <mxGeometry x="295" y="60" width="105" height="50" as="geometry" />
        </mxCell>
        <mxCell id="8" value="" style="edgeStyle=none;endArrow=none;dashed=1" parent="1" source="7" target="6" edge="1">
          <mxGeometry x="272.3350694444445" y="165" width="100" height="100" as="geometry">
            <mxPoint x="347.2588734567901" y="110" as="sourcePoint" />
            <mxPoint x="347.5761959876544" y="165" as="targetPoint" />
          </mxGeometry>
        </mxCell>
        <mxCell id="9" value="RCM pinÂ " style="edgeStyle=none;verticalLabelPosition=top;verticalAlign=bottom" parent="1" edge="1">
          <mxGeometry x="220" y="92" width="100" height="100" as="geometry">
            <mxPoint x="210" y="179.5" as="sourcePoint" />
            <mxPoint x="340" y="179.5" as="targetPoint" />
          </mxGeometry>
        </mxCell>
        <mxCell id="21" value="" style="fillColor=#CC4125;strokeColor=#660000" parent="1" vertex="1">
          <mxGeometry x="635" y="427.3942901234568" width="10" height="80" as="geometry" />
        </mxCell>
        <mxCell id="22" value="USB" style="shadow=1;fillColor=#A2C4C9;strokeColor=none" parent="1" vertex="1">
          <mxGeometry x="586.5" y="60" width="105" height="50" as="geometry" />
        </mxCell>
        <mxCell id="23" value="" style="edgeStyle=none;endArrow=none;dashed=1" parent="1" source="22" target="21" edge="1">
          <mxGeometry x="614.4878472222224" y="174.99999999999997" width="100" height="100" as="geometry">
            <mxPoint x="674.6527777777778" y="110" as="sourcePoint" />
            <mxPoint x="674.6527777777778" y="260" as="targetPoint" />
          </mxGeometry>
        </mxCell>
        <mxCell id="33" value="" style="edgeStyle=elbowEdgeStyle;elbow=horizontal;endArrow=none;dashed=1" parent="1" source="4" target="2" edge="1">
          <mxGeometry x="230.00000000000003" y="310" width="100" height="100" as="geometry">
            <mxPoint x="230.00000000000003" y="410" as="sourcePoint" />
            <mxPoint x="330" y="310" as="targetPoint" />
          </mxGeometry>
        </mxCell>
        <mxCell id="39" value="" style="ellipse;fillColor=none" parent="1" vertex="1">
          <mxGeometry x="802.5000000000001" y="304.3942901234568" width="9.999999999999886" height="10" as="geometry" />
        </mxCell>
        <mxCell id="40" value=" - user&#xa; validation&#xa;&#xa; - password check" style="shape=note;align=left" parent="1" vertex="1">
          <mxGeometry x="829.9729938271605" y="180.17361111111111" width="120.02700617283949" height="109.82638888888889" as="geometry" />
        </mxCell>
        <mxCell id="41" value="" style="edgeStyle=none;endArrow=none;dashed=1" parent="1" source="40" target="39" edge="1">
          <mxGeometry x="1030" y="180" width="100" height="100" as="geometry">
            <mxPoint x="1030" y="280" as="sourcePoint" />
            <mxPoint x="1130" y="180" as="targetPoint" />
          </mxGeometry>
        </mxCell>
        <mxCell id="44" value="" style="edgeStyle=none;dashed=1;endArrow=none" parent="1" source="2" edge="1">
          <mxGeometry x="50" y="300" width="100" height="100" as="geometry">
            <mxPoint x="50" y="400" as="sourcePoint" />
            <mxPoint x="205" y="360" as="targetPoint" />
          </mxGeometry>
        </mxCell>
        <mxCell id="48" value="" style="fillColor=#CC4125;strokeColor=#660000" parent="1" vertex="1">
          <mxGeometry x="342.5" y="282.1666666666667" width="10" height="95.83333333333331" as="geometry" />
        </mxCell>
        <mxCell id="52" value="" style="edgeStyle=none;endArrow=none;dashed=1" parent="1" source="6" target="48" edge="1">
          <mxGeometry x="376.5711805555559" y="339.6971450617284" width="100" height="100" as="geometry">
            <mxPoint x="451.7361111111112" y="284.6971450617284" as="sourcePoint" />
            <mxPoint x="451.7361111111112" y="464.0914351851852" as="targetPoint" />
          </mxGeometry>
        </mxCell>
        <mxCell id="71" value="Recovery Flow" style="rounded=1;fontStyle=1;fillColor=#FFD966;strokeColor=none" parent="1" vertex="1">
          <mxGeometry x="50" y="20" width="150" height="30" as="geometry" />
        </mxCell>
        <mxCell id="40U8Hyy1MQshFt_wqeuv-90" value="" style="edgeStyle=none;verticalLabelPosition=top;verticalAlign=bottom;labelPosition=left;align=right" edge="1" parent="1">
          <mxGeometry width="100" height="100" as="geometry">
            <mxPoint x="111" y="281.5" as="sourcePoint" />
            <mxPoint x="201" y="281.5" as="targetPoint" />
            <Array as="points">
              <mxPoint x="181" y="282" />
            </Array>
            <mxPoint as="offset" />
          </mxGeometry>
        </mxCell>
        <mxCell id="40U8Hyy1MQshFt_wqeuv-91" value="tegrareset x1" style="edgeLabel;html=1;align=center;verticalAlign=middle;resizable=0;points=[];" vertex="1" connectable="0" parent="40U8Hyy1MQshFt_wqeuv-90">
          <mxGeometry relative="1" as="geometry">
            <mxPoint x="-4" y="-16" as="offset" />
          </mxGeometry>
        </mxCell>
        <mxCell id="40U8Hyy1MQshFt_wqeuv-92" value="reset pin" style="edgeStyle=none;verticalLabelPosition=top;verticalAlign=bottom" edge="1" parent="1">
          <mxGeometry x="220" y="92" width="100" height="100" as="geometry">
            <mxPoint x="211" y="283.5" as="sourcePoint" />
            <mxPoint x="341" y="283.5" as="targetPoint" />
          </mxGeometry>
        </mxCell>
        <mxCell id="40U8Hyy1MQshFt_wqeuv-93" value="1 Reset Orin&#xa;2 Boot boot BPMP BootRom&#xa;3 Initializes USB in device mode&#xa;4 Detect usb connect status&#xa;6 wait usb data" style="shape=note;align=left" vertex="1" parent="1">
          <mxGeometry x="373" y="270" width="190" height="110" as="geometry" />
        </mxCell>
        <mxCell id="40U8Hyy1MQshFt_wqeuv-95" value="" style="edgeStyle=none;endArrow=none;dashed=1" edge="1" parent="1">
          <mxGeometry x="1030" y="180" width="100" height="100" as="geometry">
            <mxPoint x="371" y="314" as="sourcePoint" />
            <mxPoint x="352" y="331" as="targetPoint" />
          </mxGeometry>
        </mxCell>
        <mxCell id="40U8Hyy1MQshFt_wqeuv-96" value="" style="ellipse;fillColor=none" vertex="1" parent="1">
          <mxGeometry x="342.5000000000001" y="326.3942901234568" width="9.999999999999886" height="10" as="geometry" />
        </mxCell>
        <mxCell id="40U8Hyy1MQshFt_wqeuv-97" value="" style="fillColor=#CC4125;strokeColor=#660000" vertex="1" parent="1">
          <mxGeometry x="341" y="425.3942901234568" width="10" height="80" as="geometry" />
        </mxCell>
        <mxCell id="40U8Hyy1MQshFt_wqeuv-102" value="" style="edgeStyle=none;dashed=1;endArrow=none;exitX=0.5;exitY=1;exitDx=0;exitDy=0;entryX=0.5;entryY=0;entryDx=0;entryDy=0;" edge="1" parent="1" source="48" target="40U8Hyy1MQshFt_wqeuv-97">
          <mxGeometry x="50" y="300" width="100" height="100" as="geometry">
            <mxPoint x="215" y="290" as="sourcePoint" />
            <mxPoint x="348" y="410" as="targetPoint" />
          </mxGeometry>
        </mxCell>
        <mxCell id="40U8Hyy1MQshFt_wqeuv-103" value="" style="endArrow=classic;html=1;rounded=0;entryX=1;entryY=0;entryDx=0;entryDy=0;exitX=0;exitY=0;exitDx=0;exitDy=0;" edge="1" parent="1" source="21" target="40U8Hyy1MQshFt_wqeuv-97">
          <mxGeometry width="50" height="50" relative="1" as="geometry">
            <mxPoint x="620" y="430" as="sourcePoint" />
            <mxPoint x="630" y="490" as="targetPoint" />
          </mxGeometry>
        </mxCell>
        <mxCell id="40U8Hyy1MQshFt_wqeuv-104" value="1 Send boot image to bpmp bootrom&#xa;2 Bootrom will store boot image to dram&#xa;3 Boot boot image &amp; run ramdiskÂ &#xa;4 ramdisk only care adb work normal(pinctrol &amp;&#xa;Â  Â usb controller &amp; adb config)" style="shape=note;align=left" vertex="1" parent="1">
          <mxGeometry x="369" y="435" width="231" height="95" as="geometry" />
        </mxCell>
        <mxCell id="40U8Hyy1MQshFt_wqeuv-105" value="" style="edgeStyle=none;endArrow=none;dashed=1" edge="1" parent="1">
          <mxGeometry x="272.3350694444445" y="165" width="100" height="100" as="geometry">
            <mxPoint x="347" y="507" as="sourcePoint" />
            <mxPoint x="347" y="577" as="targetPoint" />
          </mxGeometry>
        </mxCell>
        <mxCell id="40U8Hyy1MQshFt_wqeuv-106" value="" style="fillColor=#CC4125;strokeColor=#660000" vertex="1" parent="1">
          <mxGeometry x="341" y="576.3942901234568" width="10" height="80" as="geometry" />
        </mxCell>
        <mxCell id="40U8Hyy1MQshFt_wqeuv-107" value="Â d&#xa;" style="shape=note;align=left" vertex="1" parent="1">
          <mxGeometry x="362" y="574.39" width="267" height="103.61" as="geometry" />
        </mxCell>
      </root>
    </mxGraphModel>
  </diagram>
</mxfile>
